# xmcd CD database file
#
# Track frame offsets:
#	180
#	12600
#	25674
#	37643
#	55525
#	67657
#	84678
#	98923
#	109252
#	125656
#	143730
#	158124
#	174808
#	190574
#	204348
#	219898
#	234390
#	249761
#	264611
#	280019
#
# Disc length: 3910 seconds
#
# Revision: 0
# Processed by: cddbd v1.5.1PL2 Copyright (c) Steve Scherf et al.
# Submitted via: CDex 1.51
#
DISCID=f60f4414
DTITLE=Various Artist - Glory Train Chabod 62
DYEAR=2006
DGENRE=Country
TTITLE0=Two Hearts-N-Him/Hold Up Your Candle
TTITLE1=Vickie Cross/Somebody's Girl
TTITLE2=Dave and Shirley/It Was Love
TTITLE3=Ronnie Pierce/I Am That I Am
TTITLE4=Lori Willcuts/Sam McCain
TTITLE5=Joe Selby/The Potter's House
TTITLE6=Alberta Mullins/More Precious Than A Sparrow
TTITLE7=Delbert Brown/How Long Is Forever
TTITLE8=Corinda Carford and The Alliance Singers/Wayfaring Stranger
TTITLE9=Carol Decker/Make Me A Mansion
TTITLE10=Donnie Davis/Soldiers In The Past (Recitation)
TTITLE11=Robert Shields/Open Up Your Bible
TTITLE12=Twice Robin/If Montgomery Was Mount Sinai
TTITLE13=Rocks Of Faith/Jesus My Solid Rock
TTITLE14=Lynn Hartline/Angel
TTITLE15=The Collins Family/The Gospel
TTITLE16=Esmie Vassell/Footprints
TTITLE17=Julian and Bonnie/The Answer
TTITLE18=The Glory Heirs/I'll Be A Rich Man
TTITLE19=Kimberly Hubbard/From The Bottom Of My Brand New Heart
EXTD=YEAR: 2006
EXTT0=
EXTT1=
EXTT2=
EXTT3=
EXTT4=
EXTT5=
EXTT6=
EXTT7=
EXTT8=
EXTT9=
EXTT10=
EXTT11=
EXTT12=
EXTT13=
EXTT14=
EXTT15=
EXTT16=
EXTT17=
EXTT18=
EXTT19=
PLAYORDER=
